<?xml version="1.0" encoding="UTF-8" standalone="no"?>
<svg
   xmlns:dc="http://purl.org/dc/elements/1.1/"
   xmlns:cc="http://creativecommons.org/ns#"
   xmlns:rdf="http://www.w3.org/1999/02/22-rdf-syntax-ns#"
   xmlns:svg="http://www.w3.org/2000/svg"
   xmlns="http://www.w3.org/2000/svg"
   version="1.1"
   id="svg2"
   xml:space="preserve"
   width="1587.4"
   height="1122.52"
   viewBox="0 0 1587.4 1122.52"><metadata
     id="metadata8"><rdf:RDF><cc:Work
         rdf:about=""><dc:format>image/svg+xml</dc:format><dc:type
           rdf:resource="http://purl.org/dc/dcmitype/StillImage" /><dc:title></dc:title></cc:Work></rdf:RDF></metadata><defs
     id="defs6"><clipPath
       clipPathUnits="userSpaceOnUse"
       id="clipPath18"><path
         d="M 0,841.89 H 1190.55 V 0 H 0 Z"
         id="path16" /></clipPath><clipPath
       clipPathUnits="userSpaceOnUse"
       id="clipPath30"><path
         d="M 440.242,347.139 H 740.28 V 296.494 H 440.242 Z"
         id="path28" /></clipPath><clipPath
       clipPathUnits="userSpaceOnUse"
       id="clipPath110"><path
         d="m 556.181,377.034 h 62.403 v -10.678 h -62.403 z"
         id="path108" /></clipPath></defs><g
     transform="translate(-24.785073,85.835572)"
     id="g1742"><flowRoot
       xml:space="preserve"
       id="flowRoot1677"
       style="font-style:normal;font-variant:normal;font-weight:normal;font-stretch:normal;font-size:10.66666698px;line-height:100%;font-family:'BadaBoom BB';-inkscape-font-specification:'BadaBoom BB';letter-spacing:0px;word-spacing:0px;fill:#f6c3ce;fill-opacity:1;stroke:#487564;stroke-width:1px;stroke-linecap:butt;stroke-linejoin:miter;stroke-opacity:1"
       transform="matrix(5.1494752,0,0,5.1494752,157.32855,-569.07626)"><flowRegion
         id="flowRegion1679"
         style="fill:#f6c3ce;fill-opacity:1;stroke:#487564;stroke-opacity:1"><rect
           id="rect1681"
           width="267.84351"
           height="376.86523"
           x="152.09204"
           y="172.28125"
           style="fill:#f6c3ce;fill-opacity:1;stroke:#487564;stroke-opacity:1" /></flowRegion><flowPara
         id="flowPara1683"
         style="font-size:53.33333206px;fill:#f6c3ce;fill-opacity:1;stroke:#487564;stroke-opacity:1">!</flowPara></flowRoot><g
       id="g20"
       transform="matrix(1.3333333,0,0,-1.3333333,996.92451,641.80081)"><path
         d="m 0,0 c -0.045,0.984 -0.091,1.972 -0.137,2.961 -0.656,15.821 -2.692,32.05 -6.373,48.32 -3.743,16.242 -9.118,32.568 -16.862,48.14 l -1.462,2.917 -0.731,1.462 -0.795,1.429 c -1.065,1.905 -2.131,3.814 -3.202,5.729 -1.152,1.862 -2.308,3.73 -3.467,5.602 -1.151,1.878 -2.469,3.648 -3.699,5.484 -5.083,7.228 -10.786,14.112 -17.137,20.457 -12.739,12.652 -28.24,22.885 -45.488,29.642 -8.65,3.308 -17.691,5.765 -26.952,7.449 -2.326,0.366 -4.656,0.734 -6.989,1.103 -2.349,0.273 -4.711,0.477 -7.07,0.722 -2.357,0.287 -4.737,0.361 -7.116,0.476 l -3.573,0.17 -3.578,0.007 c -19.089,0.109 -37.973,-3.141 -55.218,-9.957 -17.264,-6.748 -32.826,-16.935 -45.696,-29.444 -12.904,-12.499 -23.128,-27.231 -30.634,-42.836 -0.896,-1.972 -1.855,-3.91 -2.696,-5.895 -0.82,-1.993 -1.638,-3.982 -2.454,-5.965 -0.728,-2.018 -1.454,-4.03 -2.178,-6.036 -0.706,-2.014 -1.29,-4.062 -1.939,-6.083 -2.43,-8.134 -4.24,-16.354 -5.502,-24.558 -1.22,-8.18 -1.933,-16.493 -2.493,-24.626 -0.125,-2.038 -0.278,-4.071 -0.341,-6.1 -0.056,-2.028 -0.113,-4.049 -0.17,-6.064 -0.114,-4.029 -0.227,-8.03 -0.34,-12.003 -0.198,-11.713 0.121,-23.181 0.917,-34.335 0.317,-2.052 0.714,-4.084 1.26,-6.072 0.879,-3.234 2.229,-6.275 4.182,-8.745 0.946,-1.273 2.13,-2.28 3.376,-3.238 1.411,-0.943 2.869,-1.846 4.453,-2.577 6.311,-3.012 13.784,-4.177 21.575,-4.799 3.9,-0.323 7.947,-0.534 11.995,-0.793 4.054,-0.256 8.148,-0.508 12.281,-0.714 16.527,-0.899 33.652,-1.602 51.201,-2.019 35.096,-0.83 68.553,-0.512 98.959,0.522 15.203,0.539 29.646,1.221 43.155,2.009 3.376,0.211 6.695,0.418 9.954,0.622 3.251,0.211 6.479,0.388 9.547,0.645 6.122,0.504 11.819,1.495 16.393,4.081 4.597,2.538 8.175,6.395 10.678,10.586 2.8,4.669 4.137,9.4 4.304,14.849 0.191,6.219 0.136,12.435 0.207,18.645 C 0.141,-6.873 0.082,-4.92 0.054,-2.953 0.036,-1.971 0.018,-0.986 0,0"
         style="fill:#a0d5bb;fill-opacity:1;fill-rule:nonzero;stroke:none"
         id="path22" /></g><g
       id="g24"
       transform="matrix(1.3333333,0,0,-1.3333333,0,1122.52)"><g
         id="g26" /><g
         id="g38"><g
           clip-path="url(#clipPath30)"
           id="g36"
           style="opacity:0.64999402"><g
             transform="translate(515.9404,322.4164)"
             id="g34"><path
               d="m 0,0 c -39.822,0.304 -63.223,13.855 -75.698,24.723 0.025,-7.106 0.547,-14.202 1.358,-21.291 0.498,-0.801 0.815,-1.776 0.861,-2.928 0.074,-1.842 0.849,-3.568 1.936,-5.185 0.5,-0.533 0.935,-1.119 1.313,-1.748 1.443,-1.743 3.112,-3.342 4.456,-4.797 3.295,-3.566 7.478,-5.07 12.09,-6.225 4.825,-1.209 9.948,-1.696 14.644,-3.235 0.68,0.046 1.373,-0.041 2.053,-0.304 0.736,-0.114 1.469,-0.249 2.197,-0.423 0.526,-0.125 0.891,-0.392 1.132,-0.726 1.067,0.075 2.18,-0.01 3.249,0.011 1.946,0.04 3.8,0.066 5.737,-0.097 7.1,-0.592 14.181,0.874 21.219,-0.069 7.476,-1.001 14.673,-0.642 22.204,-0.803 3.175,-0.067 6.288,-0.124 9.417,-0.698 2.358,-0.433 4.964,-1.536 7.327,-0.797 1.222,0.382 2.334,0.368 3.3,0.071 0.528,0.202 1.062,0.375 1.604,0.495 1.757,0.386 3.268,0.033 4.456,-0.744 4.166,-0.087 8.37,-0.517 12.222,-0.545 5.343,-0.039 10.684,0.577 16.009,-0.025 4.949,-0.56 9.426,-0.061 14.336,0.58 1.305,0.17 2.539,-0.326 3.538,-1.163 6.004,0.324 12.043,0.563 17.953,1.199 11.351,1.223 22.116,1.175 33.644,0.851 2.666,-0.075 5.331,-0.102 7.996,-0.108 8.676,2.937 19.083,1.669 27.759,1.378 8.643,-0.289 16.483,1.024 24.946,2.406 3.766,0.615 7.059,1.169 10.491,2.808 1.999,0.954 3.906,1.79 5.978,2.257 0.294,0.313 0.539,0.575 0.696,0.729 0.58,0.567 1.195,0.969 1.822,1.244 0.572,0.987 1.266,1.901 2.094,2.703 C 180.529,-1.505 50.353,-0.384 0,0"
               style="fill:#75b69a;fill-opacity:1;fill-rule:nonzero;stroke:none"
               id="path32" /></g></g></g></g><ellipse
       ry="26.277784"
       rx="25.553457"
       cy="633.35388"
       cx="782.81311"
       id="ellipse1633"
       style="opacity:1;fill:#487564;fill-opacity:1;stroke:#487564;stroke-width:3.5431447;stroke-linecap:round;stroke-linejoin:miter;stroke-miterlimit:4;stroke-dasharray:none;stroke-opacity:1;paint-order:markers stroke fill" /><g
       id="g40"
       transform="matrix(1.3333333,0,0,-1.3333333,996.84118,678.48041)"><path
         d="m 0,0 c -0.167,-5.45 -1.504,-10.182 -4.304,-14.851 -2.503,-4.19 -6.081,-8.046 -10.677,-10.586 -4.575,-2.584 -10.272,-3.577 -16.393,-4.081 -3.068,-0.256 -6.297,-0.432 -9.548,-0.644 -3.259,-0.203 -6.577,-0.411 -9.954,-0.622 -13.509,-0.788 -27.951,-1.47 -43.154,-2.009 -30.407,-1.034 -63.863,-1.353 -98.96,-0.522 -17.548,0.417 -34.673,1.12 -51.2,2.02 -4.134,0.205 -8.227,0.458 -12.282,0.713 -4.048,0.259 -8.094,0.47 -11.994,0.793 -7.791,0.622 -15.265,1.788 -21.575,4.799 -1.585,0.73 -3.042,1.635 -4.454,2.578 -1.246,0.957 -2.43,1.964 -3.375,3.236 -1.953,2.471 -3.303,5.513 -4.182,8.745 -0.546,1.99 -0.944,4.021 -1.261,6.074 -0.795,11.153 -1.114,22.621 -0.916,34.334 0.112,3.972 0.226,7.973 0.34,12.002 0.056,2.015 0.113,4.037 0.17,6.066 0.063,2.028 0.215,4.06 0.341,6.1 0.56,8.131 1.272,16.446 2.493,24.626 1.262,8.203 3.071,16.423 5.501,24.558 0.65,2.02 1.234,4.068 1.94,6.081 0.724,2.007 1.45,4.019 2.178,6.037 0.815,1.983 1.633,3.971 2.453,5.966 0.841,1.984 1.8,3.922 2.697,5.894 7.506,15.604 17.729,30.338 30.633,42.836 12.871,12.509 28.433,22.696 45.697,29.444 17.245,6.816 36.128,10.065 55.218,9.957 l 3.578,-0.007 3.572,-0.171 c 2.38,-0.114 4.76,-0.188 7.116,-0.475 2.36,-0.245 4.722,-0.449 7.071,-0.723 2.333,-0.368 4.663,-0.735 6.989,-1.103 9.261,-1.683 18.302,-4.14 26.952,-7.449 17.247,-6.756 32.749,-16.99 45.487,-29.641 6.352,-6.345 12.055,-13.229 17.138,-20.457 1.229,-1.837 2.548,-3.607 3.698,-5.484 1.159,-1.872 2.316,-3.74 3.468,-5.603 1.07,-1.914 2.137,-3.824 3.201,-5.728 l 0.795,-1.429 0.732,-1.462 1.461,-2.917 c 7.745,-15.572 13.12,-31.898 16.863,-48.139 3.68,-16.271 5.717,-32.5 6.373,-48.321 0.046,-0.99 0.092,-1.976 0.136,-2.961 C 0.08,26.487 0.099,25.503 0.116,24.521 0.145,22.554 0.203,20.601 0.207,18.644 0.137,12.434 0.191,6.218 0,0 M 5.767,37.082 C 5.736,39.29 5.58,41.438 5.354,43.613 5.122,45.856 4.617,48.217 4.617,50.469 3.971,56.551 3.122,62.61 2.067,68.635 1.393,72.493 0.633,76.336 -0.211,80.161 -3.965,96.843 -9.412,113.67 -17.366,129.824 l -1.503,3.027 -0.753,1.516 -0.818,1.485 c -1.098,1.98 -2.198,3.964 -3.301,5.955 -1.192,1.94 -2.386,3.885 -3.583,5.835 -1.192,1.955 -2.557,3.808 -3.832,5.723 -5.272,7.548 -11.212,14.762 -17.855,21.43 -13.317,13.301 -29.646,24.134 -47.774,31.252 -9.087,3.492 -18.569,6.077 -28.248,7.841 -2.429,0.384 -4.863,0.769 -7.299,1.154 -2.447,0.288 -4.907,0.503 -7.365,0.757 -2.457,0.297 -4.931,0.378 -7.406,0.497 l -3.714,0.177 -3.728,0.009 c -9.944,0.042 -19.852,-0.765 -29.548,-2.496 -9.699,-1.715 -19.164,-4.418 -28.214,-7.974 -18.116,-7.105 -34.456,-17.848 -47.912,-30.994 -13.493,-13.136 -24.122,-28.574 -31.876,-44.855 -0.927,-2.056 -1.915,-4.08 -2.783,-6.148 -0.844,-2.077 -1.686,-4.149 -2.526,-6.216 -0.748,-2.1 -1.494,-4.195 -2.238,-6.283 -0.724,-2.096 -1.323,-4.224 -1.986,-6.326 -2.486,-8.456 -4.319,-16.985 -5.581,-25.486 -2.797,-19.49 -4.496,-39.253 -3.7,-58.953 0.564,-13.987 0.495,-35.062 12.514,-44.67 4.044,-3.232 9.139,-4.825 14.177,-6.018 13.165,-3.116 26.751,-3.95 40.263,-4.628 67.24,-3.377 134.658,-3.174 201.876,0.607 37.97,0.206 46.092,12.286 47.384,40.064 0.457,10.261 0.601,20.702 0.462,30.976"
         style="fill:#487564;fill-opacity:1;fill-rule:nonzero;stroke:none"
         id="path42" /></g><g
       id="g44"
       transform="matrix(1.3333333,0,0,-1.3333333,957.15358,524.67575)"><path
         d="M 0,0 C 0.511,0.165 0.518,1.904 -0.078,4.907 -0.669,7.91 -1.95,12.15 -4.1,17.188 c -2.141,5.038 -5.244,10.829 -9.425,16.791 -4.173,5.962 -9.482,12.046 -15.795,17.637 -6.347,5.554 -13.055,10.048 -19.498,13.431 -6.445,3.392 -12.582,5.736 -17.85,7.221 -5.27,1.493 -9.639,2.226 -12.692,2.431 -3.055,0.211 -4.779,-0.017 -4.877,-0.544 -0.222,-1.171 6.124,-3.036 15.662,-7.199 9.528,-4.118 22.209,-10.961 33.98,-21.331 C -22.815,35.263 -14.419,23.553 -9.127,14.623 -3.788,5.689 -1.134,-0.368 0,0"
         style="fill:#b5e5cc;fill-opacity:1;fill-rule:nonzero;stroke:none"
         id="path46" /></g><g
       id="g48"
       transform="matrix(1.3333333,0,0,-1.3333333,964.96478,545.37961)"><path
         d="M 0,0 C 1.093,0.099 2.056,0.645 2.637,1.57 3.221,2.482 3.396,3.768 2.969,5.012 2.541,6.256 1.613,7.163 0.592,7.524 -0.435,7.897 -1.53,7.736 -2.453,7.143 -3.383,6.545 -4.004,5.674 -4.37,4.835 -4.73,3.987 -4.839,3.167 -4.58,2.419 -4.325,1.671 -3.735,1.091 -2.931,0.643 -2.126,0.206 -1.101,-0.1 0,0"
         style="fill:#b5e5cc;fill-opacity:1;fill-rule:nonzero;stroke:none"
         id="path50" /></g><g
       id="g52"
       transform="matrix(1.3333333,0,0,-1.3333333,826.64185,532.54561)"><path
         d="M 0,0 C -0.057,-3.13 0.132,-6.168 0.555,-8.992 3.981,-31.854 33.197,-47.186 53.032,-33.032 74.11,-17.99 66.287,13.724 50.859,29.867 26.751,55.094 0.492,26.956 0,0"
         style="fill:#ffffff;fill-opacity:1;fill-rule:nonzero;stroke:none"
         id="path54" /></g><g
       id="g56"
       transform="matrix(1.3333333,0,0,-1.3333333,843.78771,538.70828)"><path
         d="m 0,0 c 0,-15.217 8.269,-27.554 18.468,-27.554 10.199,0 18.468,12.337 18.468,27.554 0,15.218 -8.269,27.554 -18.468,27.554 C 8.269,27.554 0,15.218 0,0"
         style="fill:#487564;fill-opacity:1;fill-rule:nonzero;stroke:none"
         id="path58" /></g><g
       id="g60"
       transform="matrix(1.3333333,0,0,-1.3333333,870.65624,509.28842)"><path
         d="m 0,0 c 0,-5.562 -4.039,-10.072 -9.021,-10.072 -4.982,0 -9.021,4.51 -9.021,10.072 0,5.562 4.039,10.072 9.021,10.072 C -4.039,10.072 0,5.562 0,0"
         style="fill:#ffffff;fill-opacity:1;fill-rule:nonzero;stroke:none"
         id="path62" /></g><g
       id="g64"
       transform="matrix(1.3333333,0,0,-1.3333333,914.87624,536.81961)"><path
         d="m 0,0 c 0.376,0.087 -0.026,4.374 -1.604,11.192 -0.809,3.4 -1.944,7.452 -3.847,11.762 -1.875,4.303 -4.729,8.819 -8.641,12.688 -0.499,0.471 -0.995,0.94 -1.487,1.405 -0.494,0.465 -1.035,0.866 -1.546,1.295 -1.004,0.868 -2.125,1.61 -3.191,2.364 -2.283,1.448 -4.678,2.325 -6.982,2.972 -2.317,0.63 -4.586,0.951 -6.72,1.033 -2.138,0.049 -4.131,-0.161 -5.916,-0.527 -3.574,-0.814 -6.171,-2.419 -7.646,-3.782 -0.365,-0.351 -0.709,-0.635 -0.951,-0.94 -0.241,-0.305 -0.438,-0.568 -0.588,-0.786 -0.299,-0.436 -0.412,-0.694 -0.333,-0.765 0.08,-0.072 0.348,0.046 0.776,0.326 0.214,0.139 0.467,0.32 0.757,0.538 0.29,0.218 0.672,0.409 1.063,0.664 1.585,0.978 4.052,2.116 7.314,2.592 1.637,0.197 3.443,0.266 5.38,0.118 1.933,-0.182 3.984,-0.566 6.069,-1.21 2.073,-0.657 4.231,-1.521 6.133,-2.781 0.953,-0.707 1.948,-1.373 2.887,-2.2 0.47,-0.404 0.974,-0.779 1.429,-1.211 0.456,-0.433 0.915,-0.868 1.375,-1.305 1.782,-1.807 3.418,-3.681 4.747,-5.685 0.719,-0.961 1.277,-2.01 1.901,-2.986 0.54,-1.028 1.12,-2.008 1.586,-3.022 1.941,-4.017 3.263,-7.879 4.324,-11.145 C -1.624,4.05 -0.455,-0.107 0,0"
         style="fill:#487564;fill-opacity:1;fill-rule:nonzero;stroke:none"
         id="path66" /></g><g
       id="g68"
       transform="matrix(1.3333333,0,0,-1.3333333,739.90825,532.54561)"><path
         d="M 0,0 C 0.057,-3.13 -0.131,-6.168 -0.555,-8.992 -3.981,-31.854 -33.197,-47.186 -53.032,-33.032 -74.11,-17.99 -66.287,13.724 -50.859,29.867 -26.75,55.094 -0.492,26.956 0,0"
         style="fill:#ffffff;fill-opacity:1;fill-rule:nonzero;stroke:none"
         id="path70" /></g><g
       id="g72"
       transform="matrix(1.3333333,0,0,-1.3333333,722.76305,538.70828)"><path
         d="m 0,0 c 0,-15.217 -8.269,-27.554 -18.468,-27.554 -10.199,0 -18.468,12.337 -18.468,27.554 0,15.218 8.269,27.554 18.468,27.554 C -8.269,27.554 0,15.218 0,0"
         style="fill:#487564;fill-opacity:1;fill-rule:nonzero;stroke:none"
         id="path74" /></g><g
       id="g76"
       transform="matrix(1.3333333,0,0,-1.3333333,672.61452,511.00255)"><path
         d="m 0,0 c 0,-5.562 4.039,-10.072 9.021,-10.072 4.982,0 9.021,4.51 9.021,10.072 0,5.562 -4.039,10.071 -9.021,10.071 C 4.039,10.071 0,5.562 0,0"
         style="fill:#ffffff;fill-opacity:1;fill-rule:nonzero;stroke:none"
         id="path78" /></g><g
       id="g80"
       transform="matrix(1.3333333,0,0,-1.3333333,651.67452,536.81961)"><path
         d="m 0,0 c 0.455,-0.107 1.624,4.05 3.711,10.604 1.061,3.266 2.383,7.128 4.324,11.145 0.465,1.014 1.046,1.994 1.586,3.022 0.623,0.976 1.181,2.025 1.901,2.986 1.328,2.004 2.965,3.878 4.747,5.685 0.46,0.437 0.919,0.872 1.374,1.305 0.455,0.432 0.959,0.807 1.43,1.211 0.938,0.827 1.934,1.493 2.887,2.2 1.902,1.26 4.06,2.124 6.133,2.781 2.084,0.644 4.136,1.028 6.069,1.21 1.937,0.148 3.743,0.079 5.38,-0.118 3.262,-0.476 5.729,-1.614 7.314,-2.592 0.391,-0.255 0.772,-0.446 1.062,-0.664 0.29,-0.218 0.544,-0.399 0.758,-0.538 0.428,-0.28 0.696,-0.398 0.776,-0.326 0.079,0.071 -0.034,0.329 -0.333,0.765 -0.15,0.218 -0.347,0.481 -0.588,0.786 -0.242,0.305 -0.586,0.589 -0.951,0.94 -1.475,1.363 -4.073,2.968 -7.647,3.782 -1.784,0.366 -3.777,0.576 -5.916,0.527 -2.133,-0.082 -4.402,-0.403 -6.719,-1.033 -2.304,-0.647 -4.7,-1.524 -6.982,-2.972 C 19.25,39.952 18.129,39.21 17.125,38.342 16.614,37.913 16.073,37.512 15.579,37.047 15.086,36.582 14.59,36.113 14.092,35.642 10.18,31.773 7.326,27.257 5.451,22.954 3.547,18.644 2.413,14.592 1.603,11.192 0.025,4.374 -0.376,0.087 0,0"
         style="fill:#487564;fill-opacity:1;fill-rule:nonzero;stroke:none"
         id="path82" /></g><g
       id="g84"
       transform="matrix(1.3333333,0,0,-1.3333333,743.14713,615.56951)"><path
         style="fill:#ffffff;fill-opacity:1;fill-rule:nonzero;stroke:none;stroke-width:1.33333325"
         d="m 782.8125,607.07617 a 25.553457,26.277784 0 0 0 -19.84961,9.76367 c 6.38086,0.3241 13.45975,0.57395 21.02539,0.57618 6.65626,0.0202 12.97262,-0.18928 18.74414,-0.51172 a 25.553457,26.277784 0 0 0 -19.91992,-9.82813 z"
         transform="matrix(0.75000002,0,0,-0.75000002,-557.36036,461.67714)"
         id="path86" /></g><g
       id="g92"
       transform="matrix(1.3333333,0,0,-1.3333333,826.13846,633.31402)"
       style="stroke:none;stroke-width:2.70000005;stroke-linecap:round;stroke-miterlimit:4;stroke-dasharray:none;stroke-opacity:1;paint-order:markers stroke fill"><path
         style="fill:#f6c3ce;fill-opacity:1;fill-rule:nonzero;stroke:none;stroke-width:3.5999999;stroke-linecap:round;stroke-miterlimit:4;stroke-dasharray:none;stroke-opacity:1;paint-order:markers stroke fill"
         d="m 761.49023,618.90625 a 25.553457,26.277784 0 0 0 -4.23046,14.44727 25.553457,26.277784 0 0 0 25.55273,26.27734 25.553457,26.277784 0 0 0 25.55469,-26.27734 25.553457,26.277784 0 0 0 -4.16211,-14.35547 c -6.20012,0.50928 -13.06586,0.84033 -20.35938,0.81836 -8.12649,-0.003 -15.65318,-0.38649 -22.35547,-0.91016 z"
         transform="matrix(0.75000002,0,0,-0.75000002,-619.60386,474.98553)"
         id="path94" /></g><g
       id="g104"
       transform="matrix(1.3333333,0,0,-1.3333333,1.3587538,1120.432)"><g
         id="g106" /><g
         id="g118"><g
           clip-path="url(#clipPath110)"
           id="g116"
           style="opacity:0.67999297"><g
             transform="translate(563.4897,366.39)"
             id="g114"><path
               style="fill:#e7acbc;fill-opacity:1;fill-rule:nonzero;stroke:none;stroke-width:1.33333325"
               d="m 761.49023,618.90625 a 25.553457,26.277784 0 0 0 -4.15625,12.89844 c 7.74066,-0.16786 15.47419,-0.15863 23.21875,-0.30078 8.93391,-0.16263 18.26872,-1.00064 27.58985,-1.36719 a 25.553457,26.277784 0 0 0 -3.9375,-11.14063 c -6.20049,0.51004 -13.06664,0.84229 -20.35938,0.82032 -8.12743,-0.003 -15.65349,-0.38671 -22.35547,-0.91016 z"
               transform="matrix(0.75000002,0,0,-0.75000002,-564.50877,473.93402)"
               id="path112" /></g></g></g></g></g><flowRoot
     style="font-style:normal;font-weight:normal;font-size:10.66666698px;line-height:100%;font-family:sans-serif;letter-spacing:0px;word-spacing:0px;fill:#000000;fill-opacity:1;stroke:none;stroke-width:1px;stroke-linecap:butt;stroke-linejoin:miter;stroke-opacity:1"
     id="flowRoot1669"
     xml:space="preserve"><flowRegion
       id="flowRegion1671"><rect
         y="185.74072"
         x="224.77319"
         height="366.09766"
         width="203.23804"
         id="rect1673" /></flowRegion><flowPara
       id="flowPara1675" /></flowRoot></svg>