<?xml version="1.0"?>
<svg xmlns="http://www.w3.org/2000/svg" height="512px" viewBox="0 -40 512.00042 512" width="512px" class=""><g><path d="m325.175781 75.132812c3.582031-4.203124 3.074219-10.515624-1.128906-14.097656l-6.371094-5.429687c-4.207031-3.582031-10.519531-3.078125-14.101562 1.125-3.582031 4.207031-3.078125 10.519531 1.128906 14.101562l6.371094 5.429688c1.882812 1.601562 4.1875 2.386719 6.480469 2.386719 2.828124 0 5.640624-1.191407 7.621093-3.515626zm0 0" data-original="#000000" class="active-path" data-old_color="#000000" fill="#E3C2FD"/><path d="m321.617188 129.640625 6.375 5.429687c1.882812 1.605469 4.1875 2.386719 6.480468 2.386719 2.828125 0 5.640625-1.191406 7.617188-3.515625 3.582031-4.203125 3.078125-10.515625-1.125-14.097656l-6.375-5.429688c-4.207032-3.582031-10.519532-3.078124-14.097656 1.128907-3.582032 4.203125-3.078126 10.519531 1.125 14.097656zm0 0" data-original="#000000" class="active-path" data-old_color="#000000" fill="#E3C2FD"/><path d="m509.910156 230.90625c-5.171875-24.421875-12.785156-48.46875-22.625-71.476562-2.171875-5.078126-8.050781-7.4375-13.128906-5.261719-5.078125 2.171875-7.4375 8.050781-5.261719 13.128906 9.328125 21.8125 16.542969 44.609375 21.449219 67.753906 7.960938 37.59375-13.585938 74.914063-50.125 86.816407-8.214844 2.671874-16.527344 5.046874-24.917969 7.132812v-95.710938c0-11.265624-9.164062-20.433593-20.433593-20.433593h-58.691407c-3.722656-7.539063-7.679687-14.980469-11.90625-22.296875-13.648437-23.640625-29.679687-45.636719-47.855469-65.746094l4.570313-3.6875c4.300781-3.464844 4.976563-9.765625 1.507813-14.0625-3.464844-4.300781-9.761719-4.976562-14.0625-1.507812l-5.863282 4.726562c-4.640625-4.617188-9.386718-9.136719-14.265625-13.523438-4.621093-4.15625-9.546875-7.773437-14.691406-10.867187 13.105469-16.773437 27.6875-32.417969 43.464844-46.605469 28.574219-25.691406 71.671875-25.691406 100.246093 0 19.929688 17.921875 37.925782 38.125 53.492188 60.050782 1.949219 2.746093 5.03125 4.214843 8.164062 4.214843 2 0 4.023438-.601562 5.777344-1.847656 4.503906-3.199219 5.566406-9.441406 2.367188-13.945313-16.417969-23.128906-35.402344-44.441406-56.429688-63.34375-36.195312-32.550781-90.792968-32.550781-126.992187 0-17.800781 16.003907-34.144531 33.785157-48.699219 52.882813-31.558594-10.609375-67.457031-4.132813-93.695312 19.460937-30.097657 27.066407-55.660157 58.625-75.96875 93.800782-20.308594 35.175781-34.859376 73.089844-43.246094 112.691406-10.089844 47.621094 17.210937 94.902344 63.496094 109.980469 38.488281 12.535156 78.601562 18.890625 119.21875 18.890625 40.613281 0 80.730468-6.355469 119.214843-18.890625 27.800781-9.054688 48.734375-29.726563 58.847657-55.109375 28.417968-2.636719 56.488281-8.425782 83.546874-17.238282 46.289063-15.070312 73.585938-62.351562 63.496094-109.976562zm-393.207031 174.757812v-100.03125c0-.234374.191406-.429687.429687-.429687h135.34375c.238282 0 .429688.191406.429688.429687v100.03125c-44.882812 8.441407-91.324219 8.441407-136.203125 0zm181.125-11.453124c-8.21875 2.675781-16.535156 5.035156-24.917969 7.105468v-95.683594c0-11.265624-9.167968-20.433593-20.433594-20.433593h-135.347656c-11.265625 0-20.429687 9.167969-20.429687 20.433593v95.683594c-8.386719-2.070312-16.703125-4.429687-24.917969-7.105468-36.539062-11.898438-58.085938-49.222657-50.125-86.816407 15.886719-74.988281 56.023438-144.511719 113.023438-195.761719 28.574218-25.691406 71.671874-25.691406 100.246093 0 57 51.253907 97.140625 120.773438 113.023438 195.761719 2.738281 12.925781 1.988281 25.820313-1.660157 37.660157-.128906.328124-.242187.660156-.335937 1-7.167969 22.144531-24.507813 40.464843-48.125 48.15625zm69.691406-90.960938c-5.121093-24.171875-12.550781-47.714844-22.171875-70.390625h49.519532c.238281 0 .429687.191406.429687.429687v100.082032c-8.871094 1.679687-17.8125 3.035156-26.796875 4.054687 1.695312-11.070312 1.46875-22.609375-.980469-34.175781zm0 0" data-original="#000000" class="active-path" data-old_color="#000000" fill="#E3C2FD"/><path d="m175.164062 150.992188c2.828126 0 5.640626-1.191407 7.617188-3.515626 3.582031-4.203124 3.078125-10.515624-1.128906-14.097656l-6.371094-5.429687c-4.207031-3.582031-10.519531-3.074219-14.097656 1.128906-3.585938 4.203125-3.078125 10.515625 1.125 14.097656l6.375 5.429688c1.882812 1.605469 4.1875 2.386719 6.480468 2.386719zm0 0" data-original="#000000" class="active-path" data-old_color="#000000" fill="#E3C2FD"/><path d="m188.027344 204.1875-6.375-5.429688c-4.203125-3.582031-10.515625-3.078124-14.097656 1.128907-3.582032 4.203125-3.078126 10.515625 1.128906 14.097656l6.371094 5.429687c1.882812 1.601563 4.1875 2.386719 6.480468 2.386719 2.832032 0 5.640625-1.191406 7.621094-3.515625 3.582031-4.203125 3.074219-10.515625-1.128906-14.097656zm0 0" data-original="#000000" class="active-path" data-old_color="#000000" fill="#E3C2FD"/><path d="m116.882812 185.601562-6.304687 5.085938c-4.300781 3.46875-4.976563 9.765625-1.507813 14.0625 1.976563 2.453125 4.871094 3.726562 7.792969 3.726562 2.203125 0 4.421875-.726562 6.269531-2.21875l6.304688-5.085937c4.300781-3.464844 4.976562-9.761719 1.507812-14.0625s-9.765624-4.972656-14.0625-1.507813zm0 0" data-original="#000000" class="active-path" data-old_color="#000000" fill="#E3C2FD"/><path d="m460.414062 137.464844c2.628907 0 5.210938-1.070313 7.070313-2.933594 1.859375-1.867188 2.929687-4.4375 2.929687-7.078125 0-2.632813-1.070312-5.210937-2.929687-7.074219-1.859375-1.859375-4.441406-2.929687-7.070313-2.929687-2.632812 0-5.210937 1.070312-7.074218 2.929687-1.859375 1.863282-2.929688 4.441406-2.929688 7.074219 0 2.640625 1.070313 5.21875 2.929688 7.078125 1.863281 1.863281 4.441406 2.933594 7.074218 2.933594zm0 0" data-original="#000000" class="active-path" data-old_color="#000000" fill="#E3C2FD"/></g> </svg>
