<?xml version="1.0"?>
<svg xmlns="http://www.w3.org/2000/svg" xmlns:xlink="http://www.w3.org/1999/xlink" version="1.1" id="Capa_1" x="0px" y="0px" viewBox="0 0 512 512" style="enable-background:new 0 0 512 512;" xml:space="preserve" width="512px" height="512px"><g transform="matrix(-1.83697e-16 -1 1 -1.83697e-16 0 512)"><g>
	<g>
		<g>
			<path d="M306.182,230.276l4.565-4.564c2.929-2.929,2.929-7.678,0.001-10.607c-2.93-2.929-7.678-2.93-10.607-0.001l-4.565,4.564     c-2.929,2.929-2.929,7.678,0,10.607c1.465,1.465,3.384,2.197,5.304,2.197C302.797,232.473,304.717,231.74,306.182,230.276z" data-original="#000000" class="active-path" data-old_color="#000000" fill="#57435B"/>
			<path d="M251.183,175.275l4.565-4.565c2.929-2.929,2.928-7.678-0.001-10.606c-2.93-2.928-7.678-2.929-10.607,0.001l-4.565,4.565     c-2.929,2.929-2.928,7.678,0,10.607c1.465,1.464,3.384,2.196,5.303,2.196C247.799,177.473,249.718,176.74,251.183,175.275z" data-original="#000000" class="active-path" data-old_color="#000000" fill="#57435B"/>
			<path d="M504.685,240.387c-7.971-16.623-21.759-29.601-38.823-36.541c-3.833-1.558-8.212,0.284-9.773,4.121     c-1.56,3.837,0.285,8.213,4.122,9.773c13.602,5.533,24.594,15.879,30.95,29.134c6.815,14.21,7.688,30.226,2.458,45.093     c-5.23,14.867-15.936,26.809-30.145,33.621c-1.029,0.493-2.08,0.959-3.124,1.386c-1.16,0.476-2.547,0.037-3.225-1.017     c-3.289-5.112-2.651-10.669-1.019-21.755l0.126-0.857c1.735-11.82-5.168-48.047-31.769-63.449     c-12.393-7.177-12.717-16.647-12.281-20.385c0.015-0.131,0.103-0.25,0.263-0.327c6.824-3.272,14.075-5.186,21.551-5.686     c4.133-0.276,7.259-3.852,6.982-7.984c-0.277-4.133-3.852-7.268-7.984-6.982c-9.388,0.629-18.482,3.026-27.07,7.145     c-4.373,2.097-7.437,6.046-8.411,10.726c-17.912,12.908-28.073,33.285-28.588,54.391c-5.71-4.365-12.122-7.865-19.098-10.319     c-10.573-3.719-21.641-4.785-32.432-3.274c3.172-2.292,6.208-4.854,9.062-7.707c14.036-14.036,21.766-32.7,21.766-52.55     c0-8.403-1.4-16.587-4.062-24.303c7.852,2.693,16.094,4.068,24.363,4.068c13.009-0.002,26.074-3.393,37.74-10.308     c0.927,0.141,1.862,0.219,2.797,0.219c4.405,0,8.801-1.566,12.294-4.669c1.147-1.02,2.28-2.087,3.369-3.175     c31.057-31.059,31.057-81.591,0-112.649c-31.058-31.059-81.592-31.059-112.681,0.033c-3.635,3.638-5.282,8.689-4.533,13.709     c-13.944,19.887-16.891,44.832-9.348,66.804c-7.703-2.652-15.87-4.046-24.256-4.046c-19.85,0-38.512,7.73-52.548,21.767     c-7.789,7.787-13.622,16.951-17.341,27.238c-1.408,3.896,0.608,8.195,4.503,9.604c3.897,1.406,8.196-0.609,9.603-4.504     c2.965-8.201,7.622-15.512,13.84-21.73c11.203-11.203,26.099-17.374,41.942-17.374c15.844,0,30.74,6.171,41.943,17.374     c11.204,11.203,17.373,26.099,17.373,41.942c0,15.844-6.17,30.74-17.373,41.942c-23.123,23.124-60.746,23.127-83.875,0.01     c-0.003-0.003-0.007-0.007-0.01-0.01c-0.004-0.004-0.007-0.007-0.011-0.01c-9.485-9.491-15.341-21.528-16.937-34.814     c-0.494-4.112-4.224-7.06-8.34-6.552c-4.113,0.494-7.046,4.227-6.552,8.341c0.633,5.273,1.805,10.388,3.484,15.294     c-7.684-2.638-15.83-4.026-24.193-4.026c-19.851,0-38.513,7.73-52.549,21.767c-14.036,14.036-21.767,32.699-21.767,52.55     c0,12.034,2.859,23.625,8.225,34.02L4.923,433.86C1.748,437.033,0,441.254,0,445.742c0,4.489,1.748,8.71,4.922,11.882     l6.305,6.306c0.08,2.186,0.591,4.348,1.549,6.348l4.681,9.762c2.761,5.757,8.525,9.123,14.52,9.123     c2.328,0,4.69-0.507,6.926-1.579l127.03-60.916c4.313,4.509,9.234,8.438,14.679,11.659c1.199,0.71,2.514,1.047,3.813,1.047     c2.564,0,5.062-1.315,6.462-3.682c2.109-3.565,0.93-8.164-2.635-10.273c-5.543-3.281-10.396-7.492-14.399-12.435     c-0.146-0.197-0.3-0.385-0.462-0.565c-2.45-3.111-4.567-6.504-6.308-10.135c-5.728-11.944-6.816-25.541-3.227-38.171     c5.061,1.073,10.267,1.64,15.561,1.64c19.85,0,38.512-7.73,52.549-21.767c3.819-3.819,7.153-7.99,10.01-12.424     c9.817,5.408,17.735,13.729,22.638,23.953c6.247,13.025,7.046,27.705,2.252,41.332s-14.607,24.572-27.633,30.818     c-7.827,3.753-16.16,5.533-24.769,5.313c-4.144-0.125-7.586,3.158-7.696,7.299c-0.109,4.141,3.159,7.586,7.299,7.695     c0.594,0.016,1.188,0.023,1.782,0.023c10.268,0,20.558-2.34,29.87-6.806c16.638-7.978,29.174-21.959,35.297-39.365     c2.448-6.958,3.734-14.13,3.91-21.296c5.699,4.349,12.096,7.837,19.054,10.285c7.502,2.639,15.251,3.95,22.976,3.95     c10.199,0,20.352-2.288,29.82-6.828c24.222-11.615,38.575-35.602,39.167-60.78c12,9.17,26.835,14.318,42.148,14.317     c4.359-0.001,8.76-0.426,13.141-1.286c2.502,1.295,5.29,1.987,8.127,1.987c2.233,0,4.496-0.426,6.667-1.314     c1.314-0.536,2.637-1.123,3.933-1.744c17.823-8.548,31.251-23.523,37.81-42.17C514.328,278.296,513.233,258.21,504.685,240.387z      M322.682,56.734c12.211-12.212,28.449-18.937,45.718-18.937s33.506,6.726,45.718,18.937     c25.209,25.209,25.209,66.227,0.001,91.434c-0.88,0.88-1.797,1.744-2.725,2.567c-1.243,1.106-3.169,1.169-4.483,0.148     c-5.376-4.18-6.821-10.515-9.109-22.278l-0.18-0.926c-2.377-12.191-22.843-46.954-54.853-52.999     c-13.923-2.628-18.495-10.736-19.986-15.381c-0.024-0.079-0.049-0.157-0.076-0.236c-0.148-0.481-0.262-0.922-0.35-1.311     C322.28,57.399,322.39,57.026,322.682,56.734z M326.457,144.395c-18.285-18.285-22.302-45.993-11.146-68.373     c5.817,6.711,14.332,11.446,24.677,13.4c24.935,4.709,41.356,33.145,42.913,41.129l0.179,0.92     c1.887,9.699,3.591,18.369,8.888,25.424C370.029,166.367,343.814,161.751,326.457,144.395z M25.109,455.853     c-0.341,0-0.839-0.092-1.276-0.528l-8.306-8.307c-0.437-0.436-0.528-0.935-0.528-1.276c0-0.341,0.092-0.839,0.529-1.275     L121.72,338.275c1.609,1.975,3.323,3.883,5.149,5.709c1.826,1.826,3.734,3.54,5.709,5.149L26.386,455.324     C25.949,455.761,25.451,455.853,25.109,455.853z M147.367,387.906L85.21,417.712l60.186-60.186     c1.37,0.707,2.761,1.367,4.17,1.986C146.862,368.769,146.128,378.443,147.367,387.906z M32.417,474.057     c-0.535,0.256-1.179,0.031-1.436-0.505l-1.573-3.28c2.779-0.731,5.41-2.168,7.584-4.342l16.256-16.255l97.797-46.897     c0.746,2.025,1.572,4.028,2.513,5.991c0.941,1.963,1.978,3.866,3.088,5.716L32.417,474.057z M232.369,318.194     c-0.063,0.115-0.121,0.234-0.178,0.354c-2.784,5.404-6.408,10.408-10.83,14.829c-11.203,11.203-26.1,17.374-41.943,17.374     c-6.036,0-11.931-0.901-17.54-2.629c-0.284-0.114-0.571-0.206-0.859-0.284c-4.418-1.436-8.649-3.388-12.618-5.833     c-0.142-0.098-0.287-0.188-0.433-0.275c-3.755-2.358-7.28-5.142-10.492-8.355c-3.204-3.204-5.982-6.719-8.336-10.463     c-0.094-0.161-0.193-0.319-0.3-0.474c-5.687-9.238-8.738-19.885-8.738-31.006c0-15.844,6.171-30.74,17.373-41.942     c11.203-11.203,26.099-17.374,41.943-17.374c15.843,0,30.74,6.171,41.943,17.374c11.203,11.203,17.373,26.099,17.373,41.942     C238.733,300.89,236.52,309.998,232.369,318.194z M261.736,302.719c-2.45,6.965-3.736,14.143-3.91,21.317     c-2.848-2.177-5.876-4.131-9.055-5.852c3.245-8.423,4.962-17.451,4.962-26.748c0-8.384-1.394-16.549-4.045-24.25     c7.833,2.687,16.025,4.038,24.22,4.038c3.887,0,7.773-0.319,11.62-0.923C274.615,278.425,266.352,289.596,261.736,302.719z      M350.288,374.407c-13.025,6.246-27.705,7.047-41.332,2.253c-13.627-4.794-24.572-14.607-30.819-27.634     c-6.247-13.025-7.047-27.704-2.253-41.331c4.794-13.627,14.607-24.572,27.633-30.819c7.413-3.555,15.359-5.346,23.345-5.346     c6.046,0,12.114,1.027,17.987,3.093c13.627,4.794,24.573,14.607,30.819,27.634C388.564,329.145,377.178,361.512,350.288,374.407z      M441.392,301.167l-0.125,0.852c-1.297,8.812-2.458,16.726-0.263,24.365c-21.469,1.185-42.246-10.667-51.81-30.612     c-10.066-20.99-5.387-45.671,10.486-61.571c3.149,7.397,9.053,13.918,17.269,18.676     C436.999,264.485,442.339,294.714,441.392,301.167z" data-original="#000000" class="active-path" data-old_color="#000000" fill="#57435B"/>
			<path d="M266.441,182.943c-4.123-0.275-7.712,2.836-7.996,6.968c-0.418,6.092,1.814,12.058,6.127,16.371     c3.969,3.969,9.339,6.176,14.919,6.176c0.481,0,0.966-0.017,1.45-0.05c4.132-0.283,7.253-3.863,6.969-7.996     s-3.863-7.254-7.996-6.969c-1.762,0.117-3.492-0.525-4.736-1.768c-1.245-1.246-1.89-2.972-1.769-4.736     C273.693,186.808,270.573,183.228,266.441,182.943z" data-original="#000000" class="active-path" data-old_color="#000000" fill="#57435B"/>
		</g>
	</g>
</g></g> </svg>
