<?xml version="1.0" encoding="UTF-8" standalone="no"?>
<svg
   xmlns:dc="http://purl.org/dc/elements/1.1/"
   xmlns:cc="http://creativecommons.org/ns#"
   xmlns:rdf="http://www.w3.org/1999/02/22-rdf-syntax-ns#"
   xmlns:svg="http://www.w3.org/2000/svg"
   xmlns="http://www.w3.org/2000/svg"
   viewBox="0 0 1587.4 1122.52"
   height="1122.52"
   width="1587.4"
   xml:space="preserve"
   id="svg2"
   version="1.1"><metadata
     id="metadata8"><rdf:RDF><cc:Work
         rdf:about=""><dc:format>image/svg+xml</dc:format><dc:type
           rdf:resource="http://purl.org/dc/dcmitype/StillImage" /></cc:Work></rdf:RDF></metadata><defs
     id="defs6"><clipPath
       id="clipPath18"
       clipPathUnits="userSpaceOnUse"><path
         id="path16"
         d="M 0,841.89 H 1190.55 V 0 H 0 Z" /></clipPath><clipPath
       id="clipPath30"
       clipPathUnits="userSpaceOnUse"><path
         id="path28"
         d="M 440.242,347.139 H 740.28 V 296.494 H 440.242 Z" /></clipPath><clipPath
       id="clipPath110"
       clipPathUnits="userSpaceOnUse"><path
         id="path108"
         d="m 556.181,377.034 h 62.403 v -10.678 h -62.403 z" /></clipPath></defs><g
     transform="matrix(1.3333333,0,0,-1.3333333,0,1122.52)"
     id="g10"><g
       id="g12"><g
         clip-path="url(#clipPath18)"
         id="g14"><g
           transform="translate(747.6934,360.5394)"
           id="g20"><path
             id="path22"
             style="fill:#a0d5bb;fill-opacity:1;fill-rule:nonzero;stroke:none"
             d="m 0,0 c -0.045,0.984 -0.091,1.972 -0.137,2.961 -0.656,15.821 -2.692,32.05 -6.373,48.32 -3.743,16.242 -9.118,32.568 -16.862,48.14 l -1.462,2.917 -0.731,1.462 -0.795,1.429 c -1.065,1.905 -2.131,3.814 -3.202,5.729 -1.152,1.862 -2.308,3.73 -3.467,5.602 -1.151,1.878 -2.469,3.648 -3.699,5.484 -5.083,7.228 -10.786,14.112 -17.137,20.457 -12.739,12.652 -28.24,22.885 -45.488,29.642 -8.65,3.308 -17.691,5.765 -26.952,7.449 -2.326,0.366 -4.656,0.734 -6.989,1.103 -2.349,0.273 -4.711,0.477 -7.07,0.722 -2.357,0.287 -4.737,0.361 -7.116,0.476 l -3.573,0.17 -3.578,0.007 c -19.089,0.109 -37.973,-3.141 -55.218,-9.957 -17.264,-6.748 -32.826,-16.935 -45.696,-29.444 -12.904,-12.499 -23.128,-27.231 -30.634,-42.836 -0.896,-1.972 -1.855,-3.91 -2.696,-5.895 -0.82,-1.993 -1.638,-3.982 -2.454,-5.965 -0.728,-2.018 -1.454,-4.03 -2.178,-6.036 -0.706,-2.014 -1.29,-4.062 -1.939,-6.083 -2.43,-8.134 -4.24,-16.354 -5.502,-24.558 -1.22,-8.18 -1.933,-16.493 -2.493,-24.626 -0.125,-2.038 -0.278,-4.071 -0.341,-6.1 -0.056,-2.028 -0.113,-4.049 -0.17,-6.064 -0.114,-4.029 -0.227,-8.03 -0.34,-12.003 -0.198,-11.713 0.121,-23.181 0.917,-34.335 0.317,-2.052 0.714,-4.084 1.26,-6.072 0.879,-3.234 2.229,-6.275 4.182,-8.745 0.946,-1.273 2.13,-2.28 3.376,-3.238 1.411,-0.943 2.869,-1.846 4.453,-2.577 6.311,-3.012 13.784,-4.177 21.575,-4.799 3.9,-0.323 7.947,-0.534 11.995,-0.793 4.054,-0.256 8.148,-0.508 12.281,-0.714 16.527,-0.899 33.652,-1.602 51.201,-2.019 35.096,-0.83 68.553,-0.512 98.959,0.522 15.203,0.539 29.646,1.221 43.155,2.009 3.376,0.211 6.695,0.418 9.954,0.622 3.251,0.211 6.479,0.388 9.547,0.645 6.122,0.504 11.819,1.495 16.393,4.081 4.597,2.538 8.175,6.395 10.678,10.586 2.8,4.669 4.137,9.4 4.304,14.849 0.191,6.219 0.136,12.435 0.207,18.645 C 0.141,-6.873 0.082,-4.92 0.054,-2.953 0.036,-1.971 0.018,-0.986 0,0" /></g><g
           id="g24"><g
             id="g26" /><g
             id="g38"><g
               style="opacity:0.64999402"
               id="g36"
               clip-path="url(#clipPath30)"><g
                 id="g34"
                 transform="translate(515.9404,322.4164)"><path
                   id="path32"
                   style="fill:#75b69a;fill-opacity:1;fill-rule:nonzero;stroke:none"
                   d="m 0,0 c -39.822,0.304 -63.223,13.855 -75.698,24.723 0.025,-7.106 0.547,-14.202 1.358,-21.291 0.498,-0.801 0.815,-1.776 0.861,-2.928 0.074,-1.842 0.849,-3.568 1.936,-5.185 0.5,-0.533 0.935,-1.119 1.313,-1.748 1.443,-1.743 3.112,-3.342 4.456,-4.797 3.295,-3.566 7.478,-5.07 12.09,-6.225 4.825,-1.209 9.948,-1.696 14.644,-3.235 0.68,0.046 1.373,-0.041 2.053,-0.304 0.736,-0.114 1.469,-0.249 2.197,-0.423 0.526,-0.125 0.891,-0.392 1.132,-0.726 1.067,0.075 2.18,-0.01 3.249,0.011 1.946,0.04 3.8,0.066 5.737,-0.097 7.1,-0.592 14.181,0.874 21.219,-0.069 7.476,-1.001 14.673,-0.642 22.204,-0.803 3.175,-0.067 6.288,-0.124 9.417,-0.698 2.358,-0.433 4.964,-1.536 7.327,-0.797 1.222,0.382 2.334,0.368 3.3,0.071 0.528,0.202 1.062,0.375 1.604,0.495 1.757,0.386 3.268,0.033 4.456,-0.744 4.166,-0.087 8.37,-0.517 12.222,-0.545 5.343,-0.039 10.684,0.577 16.009,-0.025 4.949,-0.56 9.426,-0.061 14.336,0.58 1.305,0.17 2.539,-0.326 3.538,-1.163 6.004,0.324 12.043,0.563 17.953,1.199 11.351,1.223 22.116,1.175 33.644,0.851 2.666,-0.075 5.331,-0.102 7.996,-0.108 8.676,2.937 19.083,1.669 27.759,1.378 8.643,-0.289 16.483,1.024 24.946,2.406 3.766,0.615 7.059,1.169 10.491,2.808 1.999,0.954 3.906,1.79 5.978,2.257 0.294,0.313 0.539,0.575 0.696,0.729 0.58,0.567 1.195,0.969 1.822,1.244 0.572,0.987 1.266,1.901 2.094,2.703 C 180.529,-1.505 50.353,-0.384 0,0" /></g></g></g></g><g
           transform="translate(747.6309,333.0297)"
           id="g40"><path
             id="path42"
             style="fill:#487564;fill-opacity:1;fill-rule:nonzero;stroke:none"
             d="m 0,0 c -0.167,-5.45 -1.504,-10.182 -4.304,-14.851 -2.503,-4.19 -6.081,-8.046 -10.677,-10.586 -4.575,-2.584 -10.272,-3.577 -16.393,-4.081 -3.068,-0.256 -6.297,-0.432 -9.548,-0.644 -3.259,-0.203 -6.577,-0.411 -9.954,-0.622 -13.509,-0.788 -27.951,-1.47 -43.154,-2.009 -30.407,-1.034 -63.863,-1.353 -98.96,-0.522 -17.548,0.417 -34.673,1.12 -51.2,2.02 -4.134,0.205 -8.227,0.458 -12.282,0.713 -4.048,0.259 -8.094,0.47 -11.994,0.793 -7.791,0.622 -15.265,1.788 -21.575,4.799 -1.585,0.73 -3.042,1.635 -4.454,2.578 -1.246,0.957 -2.43,1.964 -3.375,3.236 -1.953,2.471 -3.303,5.513 -4.182,8.745 -0.546,1.99 -0.944,4.021 -1.261,6.074 -0.795,11.153 -1.114,22.621 -0.916,34.334 0.112,3.972 0.226,7.973 0.34,12.002 0.056,2.015 0.113,4.037 0.17,6.066 0.063,2.028 0.215,4.06 0.341,6.1 0.56,8.131 1.272,16.446 2.493,24.626 1.262,8.203 3.071,16.423 5.501,24.558 0.65,2.02 1.234,4.068 1.94,6.081 0.724,2.007 1.45,4.019 2.178,6.037 0.815,1.983 1.633,3.971 2.453,5.966 0.841,1.984 1.8,3.922 2.697,5.894 7.506,15.604 17.729,30.338 30.633,42.836 12.871,12.509 28.433,22.696 45.697,29.444 17.245,6.816 36.128,10.065 55.218,9.957 l 3.578,-0.007 3.572,-0.171 c 2.38,-0.114 4.76,-0.188 7.116,-0.475 2.36,-0.245 4.722,-0.449 7.071,-0.723 2.333,-0.368 4.663,-0.735 6.989,-1.103 9.261,-1.683 18.302,-4.14 26.952,-7.449 17.247,-6.756 32.749,-16.99 45.487,-29.641 6.352,-6.345 12.055,-13.229 17.138,-20.457 1.229,-1.837 2.548,-3.607 3.698,-5.484 1.159,-1.872 2.316,-3.74 3.468,-5.603 1.07,-1.914 2.137,-3.824 3.201,-5.728 l 0.795,-1.429 0.732,-1.462 1.461,-2.917 c 7.745,-15.572 13.12,-31.898 16.863,-48.139 3.68,-16.271 5.717,-32.5 6.373,-48.321 0.046,-0.99 0.092,-1.976 0.136,-2.961 C 0.08,26.487 0.099,25.503 0.116,24.521 0.145,22.554 0.203,20.601 0.207,18.644 0.137,12.434 0.191,6.218 0,0 M 5.767,37.082 C 5.736,39.29 5.58,41.438 5.354,43.613 5.122,45.856 4.617,48.217 4.617,50.469 3.971,56.551 3.122,62.61 2.067,68.635 1.393,72.493 0.633,76.336 -0.211,80.161 -3.965,96.843 -9.412,113.67 -17.366,129.824 l -1.503,3.027 -0.753,1.516 -0.818,1.485 c -1.098,1.98 -2.198,3.964 -3.301,5.955 -1.192,1.94 -2.386,3.885 -3.583,5.835 -1.192,1.955 -2.557,3.808 -3.832,5.723 -5.272,7.548 -11.212,14.762 -17.855,21.43 -13.317,13.301 -29.646,24.134 -47.774,31.252 -9.087,3.492 -18.569,6.077 -28.248,7.841 -2.429,0.384 -4.863,0.769 -7.299,1.154 -2.447,0.288 -4.907,0.503 -7.365,0.757 -2.457,0.297 -4.931,0.378 -7.406,0.497 l -3.714,0.177 -3.728,0.009 c -9.944,0.042 -19.852,-0.765 -29.548,-2.496 -9.699,-1.715 -19.164,-4.418 -28.214,-7.974 -18.116,-7.105 -34.456,-17.848 -47.912,-30.994 -13.493,-13.136 -24.122,-28.574 -31.876,-44.855 -0.927,-2.056 -1.915,-4.08 -2.783,-6.148 -0.844,-2.077 -1.686,-4.149 -2.526,-6.216 -0.748,-2.1 -1.494,-4.195 -2.238,-6.283 -0.724,-2.096 -1.323,-4.224 -1.986,-6.326 -2.486,-8.456 -4.319,-16.985 -5.581,-25.486 -2.797,-19.49 -4.496,-39.253 -3.7,-58.953 0.564,-13.987 0.495,-35.062 12.514,-44.67 4.044,-3.232 9.139,-4.825 14.177,-6.018 13.165,-3.116 26.751,-3.95 40.263,-4.628 67.24,-3.377 134.658,-3.174 201.876,0.607 37.97,0.206 46.092,12.286 47.384,40.064 0.457,10.261 0.601,20.702 0.462,30.976" /></g><g
           transform="translate(717.8652,448.3832)"
           id="g44"><path
             id="path46"
             style="fill:#b5e5cc;fill-opacity:1;fill-rule:nonzero;stroke:none"
             d="M 0,0 C 0.511,0.165 0.518,1.904 -0.078,4.907 -0.669,7.91 -1.95,12.15 -4.1,17.188 c -2.141,5.038 -5.244,10.829 -9.425,16.791 -4.173,5.962 -9.482,12.046 -15.795,17.637 -6.347,5.554 -13.055,10.048 -19.498,13.431 -6.445,3.392 -12.582,5.736 -17.85,7.221 -5.27,1.493 -9.639,2.226 -12.692,2.431 -3.055,0.211 -4.779,-0.017 -4.877,-0.544 -0.222,-1.171 6.124,-3.036 15.662,-7.199 9.528,-4.118 22.209,-10.961 33.98,-21.331 C -22.815,35.263 -14.419,23.553 -9.127,14.623 -3.788,5.689 -1.134,-0.368 0,0" /></g><g
           transform="translate(723.7236,432.8553)"
           id="g48"><path
             id="path50"
             style="fill:#b5e5cc;fill-opacity:1;fill-rule:nonzero;stroke:none"
             d="M 0,0 C 1.093,0.099 2.056,0.645 2.637,1.57 3.221,2.482 3.396,3.768 2.969,5.012 2.541,6.256 1.613,7.163 0.592,7.524 -0.435,7.897 -1.53,7.736 -2.453,7.143 -3.383,6.545 -4.004,5.674 -4.37,4.835 -4.73,3.987 -4.839,3.167 -4.58,2.419 -4.325,1.671 -3.735,1.091 -2.931,0.643 -2.126,0.206 -1.101,-0.1 0,0" /></g><g
           transform="translate(619.9814,442.4808)"
           id="g52"><path
             id="path54"
             style="fill:#ffffff;fill-opacity:1;fill-rule:nonzero;stroke:none"
             d="M 0,0 C -0.057,-3.13 0.132,-6.168 0.555,-8.992 3.981,-31.854 33.197,-47.186 53.032,-33.032 74.11,-17.99 66.287,13.724 50.859,29.867 26.751,55.094 0.492,26.956 0,0" /></g><g
           transform="translate(632.8408,437.8588)"
           id="g56"><path
             id="path58"
             style="fill:#487564;fill-opacity:1;fill-rule:nonzero;stroke:none"
             d="m 0,0 c 0,-15.217 8.269,-27.554 18.468,-27.554 10.199,0 18.468,12.337 18.468,27.554 0,15.218 -8.269,27.554 -18.468,27.554 C 8.269,27.554 0,15.218 0,0" /></g><g
           transform="translate(652.9922,459.9237)"
           id="g60"><path
             id="path62"
             style="fill:#ffffff;fill-opacity:1;fill-rule:nonzero;stroke:none"
             d="m 0,0 c 0,-5.562 -4.039,-10.072 -9.021,-10.072 -4.982,0 -9.021,4.51 -9.021,10.072 0,5.562 4.039,10.072 9.021,10.072 C -4.039,10.072 0,5.562 0,0" /></g><g
           transform="translate(686.1572,439.2753)"
           id="g64"><path
             id="path66"
             style="fill:#487564;fill-opacity:1;fill-rule:nonzero;stroke:none"
             d="m 0,0 c 0.376,0.087 -0.026,4.374 -1.604,11.192 -0.809,3.4 -1.944,7.452 -3.847,11.762 -1.875,4.303 -4.729,8.819 -8.641,12.688 -0.499,0.471 -0.995,0.94 -1.487,1.405 -0.494,0.465 -1.035,0.866 -1.546,1.295 -1.004,0.868 -2.125,1.61 -3.191,2.364 -2.283,1.448 -4.678,2.325 -6.982,2.972 -2.317,0.63 -4.586,0.951 -6.72,1.033 -2.138,0.049 -4.131,-0.161 -5.916,-0.527 -3.574,-0.814 -6.171,-2.419 -7.646,-3.782 -0.365,-0.351 -0.709,-0.635 -0.951,-0.94 -0.241,-0.305 -0.438,-0.568 -0.588,-0.786 -0.299,-0.436 -0.412,-0.694 -0.333,-0.765 0.08,-0.072 0.348,0.046 0.776,0.326 0.214,0.139 0.467,0.32 0.757,0.538 0.29,0.218 0.672,0.409 1.063,0.664 1.585,0.978 4.052,2.116 7.314,2.592 1.637,0.197 3.443,0.266 5.38,0.118 1.933,-0.182 3.984,-0.566 6.069,-1.21 2.073,-0.657 4.231,-1.521 6.133,-2.781 0.953,-0.707 1.948,-1.373 2.887,-2.2 0.47,-0.404 0.974,-0.779 1.429,-1.211 0.456,-0.433 0.915,-0.868 1.375,-1.305 1.782,-1.807 3.418,-3.681 4.747,-5.685 0.719,-0.961 1.277,-2.01 1.901,-2.986 0.54,-1.028 1.12,-2.008 1.586,-3.022 1.941,-4.017 3.263,-7.879 4.324,-11.145 C -1.624,4.05 -0.455,-0.107 0,0" /></g><g
           transform="translate(554.9312,442.4808)"
           id="g68"><path
             id="path70"
             style="fill:#ffffff;fill-opacity:1;fill-rule:nonzero;stroke:none"
             d="M 0,0 C 0.057,-3.13 -0.131,-6.168 -0.555,-8.992 -3.981,-31.854 -33.197,-47.186 -53.032,-33.032 -74.11,-17.99 -66.287,13.724 -50.859,29.867 -26.75,55.094 -0.492,26.956 0,0" /></g><g
           transform="translate(542.0723,437.8588)"
           id="g72"><path
             id="path74"
             style="fill:#487564;fill-opacity:1;fill-rule:nonzero;stroke:none"
             d="m 0,0 c 0,-15.217 -8.269,-27.554 -18.468,-27.554 -10.199,0 -18.468,12.337 -18.468,27.554 0,15.218 8.269,27.554 18.468,27.554 C -8.269,27.554 0,15.218 0,0" /></g><g
           transform="translate(504.4609,458.6381)"
           id="g76"><path
             id="path78"
             style="fill:#ffffff;fill-opacity:1;fill-rule:nonzero;stroke:none"
             d="m 0,0 c 0,-5.562 4.039,-10.072 9.021,-10.072 4.982,0 9.021,4.51 9.021,10.072 0,5.562 -4.039,10.071 -9.021,10.071 C 4.039,10.071 0,5.562 0,0" /></g><g
           transform="translate(488.7559,439.2753)"
           id="g80"><path
             id="path82"
             style="fill:#487564;fill-opacity:1;fill-rule:nonzero;stroke:none"
             d="m 0,0 c 0.455,-0.107 1.624,4.05 3.711,10.604 1.061,3.266 2.383,7.128 4.324,11.145 0.465,1.014 1.046,1.994 1.586,3.022 0.623,0.976 1.181,2.025 1.901,2.986 1.328,2.004 2.965,3.878 4.747,5.685 0.46,0.437 0.919,0.872 1.374,1.305 0.455,0.432 0.959,0.807 1.43,1.211 0.938,0.827 1.934,1.493 2.887,2.2 1.902,1.26 4.06,2.124 6.133,2.781 2.084,0.644 4.136,1.028 6.069,1.21 1.937,0.148 3.743,0.079 5.38,-0.118 3.262,-0.476 5.729,-1.614 7.314,-2.592 0.391,-0.255 0.772,-0.446 1.062,-0.664 0.29,-0.218 0.544,-0.399 0.758,-0.538 0.428,-0.28 0.696,-0.398 0.776,-0.326 0.079,0.071 -0.034,0.329 -0.333,0.765 -0.15,0.218 -0.347,0.481 -0.588,0.786 -0.242,0.305 -0.586,0.589 -0.951,0.94 -1.475,1.363 -4.073,2.968 -7.647,3.782 -1.784,0.366 -3.777,0.576 -5.916,0.527 -2.133,-0.082 -4.402,-0.403 -6.719,-1.033 -2.304,-0.647 -4.7,-1.524 -6.982,-2.972 C 19.25,39.952 18.129,39.21 17.125,38.342 16.614,37.913 16.073,37.512 15.579,37.047 15.086,36.582 14.59,36.113 14.092,35.642 10.18,31.773 7.326,27.257 5.451,22.954 3.547,18.644 2.413,14.592 1.603,11.192 0.025,4.374 -0.376,0.087 0,0" /></g><g
           transform="translate(556.3413,378.6469)"
           id="g84"><path
             id="path86"
             style="fill:#ffffff;fill-opacity:1;fill-rule:nonzero;stroke:none"
             d="m 0,0 c 1.329,-0.097 2.84,-0.206 4.511,-0.326 6.681,-0.471 15.915,-1.056 26.12,-1.059 10.206,-0.031 19.411,0.647 26.041,1.33 3.278,0.332 5.802,0.951 7.309,1.716 0.125,0.06 0.233,0.118 0.346,0.177 -0.291,0.885 -0.718,1.735 -1.36,2.52 C 61.151,6.85 57.866,8.485 54.035,8.875 52.128,9.086 50.125,9.058 48.116,8.848 47.075,8.715 46.03,8.581 44.98,8.447 43.901,8.315 42.819,8.183 41.726,8.072 37.36,7.613 32.869,7.354 28.315,7.425 23.781,7.474 19.228,7.895 14.966,8.508 10.879,9.041 6.674,9.022 3.452,7.601 0.271,6.201 -1.891,3.471 -2.368,0.688 -2.388,0.576 -2.395,0.462 -2.411,0.349 -1.777,0.16 -0.966,0.058 0,0" /></g><g
           transform="translate(556.2437,371.4281)"
           id="g88"><path
             id="path90"
             style="fill:#62585b;fill-opacity:1;fill-rule:nonzero;stroke:none"
             d="M 0,0 C 0.646,1.251 1.545,2.364 2.569,3.242 3.609,4.115 4.782,4.713 5.823,5.081 6.16,5.193 6.473,5.282 6.774,5.36 5.957,5.449 5.161,5.539 4.408,5.629 2.74,5.83 1.236,6.031 -0.083,6.222 c -0.833,0.111 -1.635,0.276 -2.328,0.519 -0.182,-2.506 0.394,-5.099 0.89,-7.654 0.15,-0.752 0.305,-1.498 0.467,-2.238 C -0.861,-2.148 -0.538,-1.084 0,0" /></g><g
           transform="translate(618.584,365.3392)"
           id="g92"><path
             id="path94"
             style="fill:#f6c3ce;fill-opacity:1;fill-rule:nonzero;stroke:none"
             d="m 0,0 c -0.15,1.727 0.39,4.064 -0.741,6.295 -0.563,1.116 -1.383,2.093 -2.281,2.878 -0.909,0.78 -1.884,1.37 -2.76,1.8 -0.655,0.317 -1.25,0.548 -1.737,0.722 -6.443,-0.883 -14.908,-1.601 -24.201,-1.573 -8.364,0.003 -16.03,0.525 -22.194,1.147 -0.558,-0.158 -1.322,-0.449 -2.198,-0.849 -0.874,-0.423 -1.833,-1.013 -2.695,-1.818 -0.846,-0.815 -1.611,-1.815 -2.201,-2.955 -1.143,-2.299 -1.459,-4.587 -1.585,-6.233 -0.005,-0.062 -0.008,-0.117 -0.011,-0.178 0.975,-3.672 2.196,-7.143 3.868,-10.306 1.27,-2.409 2.797,-4.629 4.582,-6.585 1.786,-1.954 3.809,-3.673 6.019,-4.949 2.215,-1.313 4.708,-2.158 7.118,-2.773 2.413,-0.643 4.824,-0.926 7.073,-1.119 4.525,-0.307 8.481,0.017 11.616,0.544 1.15,0.194 2.183,0.414 3.111,0.641 0.979,0.293 1.949,0.637 2.885,1.074 1.076,0.481 2.068,1.104 2.979,1.815 0.483,0.337 0.837,0.774 1.273,1.158 0.409,0.421 0.803,0.898 1.213,1.351 3.207,3.708 6.126,8.082 8.398,13.031 0.951,2.061 1.785,4.229 2.503,6.475 C 0.021,-0.273 0.006,-0.144 0,0" /></g><g
           transform="translate(620.8564,379.7426)"
           id="g96"><path
             id="path98"
             style="fill:#62585b;fill-opacity:1;fill-rule:nonzero;stroke:none"
             d="m 0,0 c -1.492,-1.031 -4.209,-1.902 -7.565,-2.405 -0.163,-0.025 -0.345,-0.048 -0.509,-0.073 0.208,-0.061 0.421,-0.126 0.644,-0.206 1.034,-0.371 2.197,-0.953 3.277,-1.786 1.069,-0.836 2.048,-1.927 2.692,-3.21 0.372,-0.754 0.567,-1.526 0.661,-2.269 0.374,1.632 0.694,3.293 0.939,4.984 0.214,1.676 0.257,3.375 -0.12,4.979 C 0.012,0.009 0.007,0.005 0,0" /></g><g
           transform="translate(620.9951,374.7777)"
           id="g100"><path
             id="path102"
             style="fill:#487564;fill-opacity:1;fill-rule:nonzero;stroke:none"
             d="m 0,0 c -0.245,-1.691 -0.564,-3.353 -0.938,-4.984 -0.094,0.743 -0.29,1.515 -0.662,2.269 -0.644,1.282 -1.623,2.374 -2.692,3.21 -1.08,0.833 -2.243,1.415 -3.276,1.786 -0.224,0.079 -0.437,0.145 -0.645,0.206 0.164,0.025 0.347,0.048 0.509,0.073 3.356,0.503 6.073,1.374 7.565,2.405 0.007,0.005 0.012,0.009 0.019,0.014 C 0.257,3.375 0.214,1.676 0,0 m -4.773,-16.32 c -2.273,-4.95 -5.192,-9.324 -8.399,-13.032 -0.409,-0.453 -0.803,-0.929 -1.212,-1.35 -0.436,-0.385 -0.791,-0.821 -1.273,-1.158 -0.91,-0.711 -1.904,-1.334 -2.98,-1.816 -0.934,-0.436 -1.905,-0.78 -2.884,-1.073 -0.927,-0.228 -1.96,-0.447 -3.111,-0.642 -3.135,-0.526 -7.091,-0.85 -11.617,-0.544 -2.249,0.194 -4.659,0.477 -7.072,1.12 -2.41,0.615 -4.904,1.46 -7.118,2.773 -2.21,1.275 -4.233,2.994 -6.019,4.948 -1.785,1.956 -3.312,4.176 -4.582,6.585 -1.672,3.163 -2.893,6.635 -3.869,10.307 0.004,0.06 0.007,0.115 0.012,0.178 0.125,1.645 0.441,3.933 1.584,6.233 0.591,1.14 1.356,2.14 2.202,2.954 0.861,0.806 1.821,1.396 2.695,1.818 0.875,0.401 1.64,0.692 2.198,0.849 6.164,-0.621 13.829,-1.143 22.194,-1.146 9.293,-0.029 17.757,0.689 24.201,1.573 0.487,-0.175 1.081,-0.405 1.736,-0.723 0.877,-0.43 1.853,-1.019 2.761,-1.8 0.897,-0.785 1.718,-1.761 2.281,-2.878 1.13,-2.23 0.59,-4.568 0.74,-6.294 0.007,-0.144 0.022,-0.274 0.035,-0.408 -0.718,-2.246 -1.551,-4.414 -2.503,-6.474 m -62.39,19.712 c 0.693,-0.244 1.496,-0.409 2.329,-0.52 1.318,-0.19 2.823,-0.392 4.491,-0.593 0.752,-0.09 1.549,-0.179 2.366,-0.268 -0.301,-0.078 -0.615,-0.167 -0.952,-0.28 -1.041,-0.368 -2.213,-0.965 -3.254,-1.838 -1.023,-0.878 -1.922,-1.992 -2.568,-3.243 -0.538,-1.084 -0.862,-2.148 -1.055,-3.151 -0.161,0.74 -0.317,1.486 -0.466,2.238 -0.497,2.555 -1.073,5.149 -0.891,7.655 m 5.961,8.078 c 3.222,1.422 7.427,1.44 11.514,0.907 4.262,-0.613 8.815,-1.034 13.349,-1.083 4.554,-0.071 9.046,0.188 13.411,0.647 1.093,0.111 2.175,0.244 3.254,0.375 1.05,0.134 2.095,0.268 3.136,0.401 2.01,0.21 4.013,0.238 5.919,0.027 3.831,-0.39 7.116,-2.025 8.932,-4.516 0.642,-0.786 1.069,-1.636 1.36,-2.521 C -0.439,5.648 -0.548,5.59 -0.673,5.53 -2.18,4.766 -4.704,4.146 -7.981,3.814 c -6.63,-0.683 -15.835,-1.361 -26.042,-1.33 -10.205,0.003 -19.438,0.588 -26.12,1.059 -1.67,0.12 -3.182,0.229 -4.511,0.326 -0.966,0.058 -1.777,0.16 -2.411,0.349 0.016,0.113 0.023,0.227 0.043,0.34 0.478,2.782 2.639,5.512 5.82,6.912 M 0.857,9.396 c -1.104,1.483 -2.662,2.85 -4.609,3.824 -1.93,0.985 -4.163,1.604 -6.419,1.849 -2.259,0.26 -4.539,0.226 -6.769,0 -1.137,-0.129 -2.181,-0.265 -3.225,-0.402 -1.053,-0.125 -2.108,-0.253 -3.171,-0.358 -4.246,-0.439 -8.575,-0.683 -12.946,-0.615 -4.393,0.053 -8.627,0.434 -12.911,1.04 -2.226,0.276 -4.502,0.438 -6.808,0.288 -2.289,-0.149 -4.643,-0.568 -6.698,-1.506 -2.063,-0.912 -3.762,-2.256 -4.959,-3.746 -1.211,-1.452 -2.014,-3.216 -2.291,-4.893 -0.552,-3.403 0.266,-6.544 0.862,-9.491 1.26,-5.944 2.9,-11.635 5.681,-16.665 2.78,-5.016 6.677,-9.337 11.69,-12.142 1.548,-0.869 3.187,-1.512 4.828,-2.03 -0.09,-0.006 -0.145,-0.018 -0.15,-0.041 -0.019,-0.075 0.726,-0.256 2.155,-0.531 0.327,-0.084 0.658,-0.176 0.983,-0.251 2.604,-0.626 5.154,-0.862 7.521,-0.998 1.183,-0.048 2.324,-0.054 3.421,-0.026 2.396,-0.068 5.079,-0.004 8.011,0.366 2.347,0.328 4.87,0.876 7.302,1.937 1.223,0.514 2.386,1.195 3.458,1.993 0.564,0.379 0.999,0.865 1.51,1.305 0.463,0.454 0.864,0.916 1.308,1.383 3.425,3.761 6.557,8.235 9.006,13.309 2.461,5.077 4.241,10.712 5.199,16.775 0.208,1.536 0.327,3.138 0.079,4.792 -0.217,1.636 -0.904,3.37 -2.058,4.834" /></g><g
           id="g104"><g
             id="g106" /><g
             id="g118"><g
               style="opacity:0.67999297"
               id="g116"
               clip-path="url(#clipPath110)"><g
                 id="g114"
                 transform="translate(563.4897,366.39)"><path
                   id="path112"
                   style="fill:#e7acbc;fill-opacity:1;fill-rule:nonzero;stroke:none"
                   d="M 0,0 C 6.973,0.233 13.933,0.178 20.906,0.306 31.948,0.507 43.808,2.115 55.091,1.19 55.11,2.472 55.045,3.878 54.353,5.244 53.791,6.36 52.97,7.337 52.072,8.122 c -0.908,0.78 -1.884,1.37 -2.76,1.8 -0.655,0.317 -1.25,0.548 -1.736,0.723 C 41.132,9.761 32.667,9.043 23.375,9.071 15.01,9.074 7.345,9.597 1.181,10.218 0.622,10.061 -0.142,9.77 -1.018,9.369 -1.892,8.946 -2.851,8.356 -3.713,7.551 -4.559,6.736 -5.324,5.736 -5.914,4.597 -6.709,2.997 -7.1,1.407 -7.309,0.031 -4.865,0.007 -2.413,-0.081 0,0" /></g></g></g></g></g></g></g></svg>